<?xml version="1.0" encoding="UTF-8"?>
<svg version="1.1" xmlns="http://www.w3.org/2000/svg" width="512" height="512">
<path d="M0 0 C1.50385254 0.01135986 1.50385254 0.01135986 3.03808594 0.02294922 C21.8448578 0.4383842 35.80388302 8.17858588 48.7265625 21.546875 C52.38933164 25.56812793 55.17618856 29.61578204 57.6875 34.4375 C58.40550781 34.0765625 59.12351562 33.715625 59.86328125 33.34375 C70.60421896 28.52838565 81.8480829 27.45027934 93.32421875 30.359375 C103.85659647 34.42960378 110.8810529 41.1821599 115.6875 51.4375 C119.89212877 62.73023549 119.08863573 74.6104897 119.02807617 86.46386719 C119.02722895 88.79073068 119.0277069 91.11759498 119.02940369 93.44445801 C119.03026134 99.73287408 119.01267272 106.02111707 118.99168181 112.30949306 C118.97287669 118.89180553 118.97116155 125.47412234 118.96760559 132.05645752 C118.95985236 143.0952859 118.94063812 154.13405394 118.91381836 165.17285156 C118.88623597 176.53743171 118.86502292 187.90199465 118.85229492 199.26660156 C118.85150675 199.96837984 118.85071858 200.67015811 118.84990653 201.39320239 C118.84599111 204.91419549 118.84220006 208.43518871 118.83847082 211.956182 C118.80742505 241.11666235 118.75440866 270.27708033 118.6875 299.4375 C119.47125 299.72625 120.255 300.015 121.0625 300.3125 C123.6875 301.4375 123.6875 301.4375 125.6875 303.4375 C126.37052257 310.4953999 126.37052257 310.4953999 123.875 313.9375 C121.6875 315.4375 121.6875 315.4375 118.6875 315.4375 C118.6875 329.2975 118.6875 343.1575 118.6875 357.4375 C120.3375 357.7675 121.9875 358.0975 123.6875 358.4375 C126.21581791 362.22997686 126.30072169 364.98699712 125.6875 369.4375 C123.87586733 372.11181489 122.80988923 372.39670359 119.6875 373.4375 C119.3575 414.3575 119.0275 455.2775 118.6875 497.4375 C-45.6525 497.4375 -209.9925 497.4375 -379.3125 497.4375 C-379.6425 456.5175 -379.9725 415.5975 -380.3125 373.4375 C-382.7875 371.9525 -382.7875 371.9525 -385.3125 370.4375 C-386.3125 369.4375 -386.3125 369.4375 -386.625 365.625 C-386.5906156 362.43298109 -386.44943943 361.62638197 -384.5 358.9375 C-382.3125 357.4375 -382.3125 357.4375 -379.3125 357.4375 C-379.3125 343.5775 -379.3125 329.7175 -379.3125 315.4375 C-380.9625 315.1075 -382.6125 314.7775 -384.3125 314.4375 C-386.45554046 311.2229393 -386.78460474 309.20821584 -386.70703125 305.37890625 C-386.3125 303.4375 -386.3125 303.4375 -383.9375 300.9375 C-381.3125 299.4375 -381.3125 299.4375 -379.3125 299.4375 C-379.39910385 298.62208237 -379.39910385 298.62208237 -379.48745728 297.79019165 C-383.70275984 256.17037175 -383.70275984 256.17037175 -375.20199585 244.46615601 C-368.9553276 237.00383885 -361.33155722 230.89728364 -353.3125 225.4375 C-351.90291016 226.69433594 -351.90291016 226.69433594 -350.46484375 227.9765625 C-347.53892971 230.51987402 -344.51135327 232.61498976 -341.25390625 234.7109375 C-334.15055821 239.84560626 -327.59064654 245.21460473 -325.76263428 254.11462402 C-323.90501839 269.08502277 -325.23740485 284.45784096 -326.3125 299.4375 C-314.4325 299.4375 -302.5525 299.4375 -290.3125 299.4375 C-290.61414063 296.27414062 -290.91578125 293.11078125 -291.2265625 289.8515625 C-293.89691442 253.65856396 -293.89691442 253.65856396 -284.5234375 242.4609375 C-278.57886871 235.91605796 -271.60455178 230.40230121 -264.3125 225.4375 C-262.90291016 226.69433594 -262.90291016 226.69433594 -261.46484375 227.9765625 C-258.53892971 230.51987402 -255.51135327 232.61498976 -252.25390625 234.7109375 C-245.15055821 239.84560626 -238.59064654 245.21460473 -236.76263428 254.11462402 C-234.90501839 269.08502277 -236.23740485 284.45784096 -237.3125 299.4375 C-225.4325 299.4375 -213.5525 299.4375 -201.3125 299.4375 C-201.73015625 294.65765625 -201.73015625 294.65765625 -202.15625 289.78125 C-204.62923983 253.25212243 -204.62923983 253.25212243 -195.93359375 243.15234375 C-191.06294798 237.92582797 -185.36181636 233.58481141 -179.40209961 229.67358398 C-178.71253174 228.93567627 -178.02296387 228.19776855 -177.3125 227.4375 C-177.46519565 223.29398441 -178.40187386 219.69172189 -179.8125 215.8125 C-185.25618633 200.73348886 -183.27230836 182.94003429 -177.02734375 168.45703125 C-169.26981468 153.13645156 -156.60034518 141.16139391 -140.3125 135.4375 C-135.35639233 133.93096299 -130.34663583 132.6535733 -125.3125 131.4375 C-125.72242188 130.63828125 -126.13234375 129.8390625 -126.5546875 129.015625 C-133.16139836 115.54931483 -135.51782206 102.28516176 -130.625 87.75 C-124.5291457 72.68578452 -115.59799342 64.18426799 -100.94921875 57.33203125 C-90.14915123 53.35894941 -75.82880391 53.99845714 -65.3125 58.4375 C-64.94125 57.1071875 -64.94125 57.1071875 -64.5625 55.75 C-64.376875 55.11191406 -64.19125 54.47382812 -64 53.81640625 C-63.48564955 52.0366368 -62.98844537 50.2518963 -62.5 48.46484375 C-58.90630011 35.90186789 -53.53949406 26.69625652 -44.3125 17.4375 C-43.39017578 16.48037109 -43.39017578 16.48037109 -42.44921875 15.50390625 C-31.1429959 4.63346929 -15.38547278 -0.1644528 0 0 Z M-326.3125 315.4375 C-326.3125 329.2975 -326.3125 343.1575 -326.3125 357.4375 C-314.4325 357.4375 -302.5525 357.4375 -290.3125 357.4375 C-290.3125 343.5775 -290.3125 329.7175 -290.3125 315.4375 C-302.1925 315.4375 -314.0725 315.4375 -326.3125 315.4375 Z M-237.3125 315.4375 C-237.3125 329.2975 -237.3125 343.1575 -237.3125 357.4375 C-225.4325 357.4375 -213.5525 357.4375 -201.3125 357.4375 C-201.3125 343.5775 -201.3125 329.7175 -201.3125 315.4375 C-213.1925 315.4375 -225.0725 315.4375 -237.3125 315.4375 Z M-326.3125 373.4375 C-326.3125 383.6675 -326.3125 393.8975 -326.3125 404.4375 C-322.6825 402.7875 -319.0525 401.1375 -315.3125 399.4375 C-306.21792928 397.16385732 -299.59358075 398.90629616 -290.3125 401.4375 C-290.3125 392.1975 -290.3125 382.9575 -290.3125 373.4375 C-302.1925 373.4375 -314.0725 373.4375 -326.3125 373.4375 Z M-237.3125 373.4375 C-237.3125 385.9775 -237.3125 398.5175 -237.3125 411.4375 C-232.6925 413.7475 -228.0725 416.0575 -223.3125 418.4375 C-220.8375 420.4175 -220.8375 420.4175 -218.3125 422.4375 C-217.99796875 421.84582031 -217.6834375 421.25414062 -217.359375 420.64453125 C-211.31352983 409.48157014 -211.31352983 409.48157014 -207.36645508 407.42211914 C-204.78620896 405.98890838 -203.15883012 404.75908197 -201.3125 402.4375 C-200.29769274 397.44635168 -200.55963252 392.62936017 -200.8125 387.5625 C-200.9775 382.90125 -201.1425 378.24 -201.3125 373.4375 C-213.1925 373.4375 -225.0725 373.4375 -237.3125 373.4375 Z " fill="#9CBF42" transform="translate(386.3125,7.5625)"/>
<path d="M0 0 C17.16 0 34.32 0 52 0 C53.88631543 1.88631543 53.24265292 5.14200693 53.31640625 7.66015625 C53.33718735 8.32462265 53.35796844 8.98908905 53.37937927 9.6736908 C53.44493658 11.80318543 53.50378785 13.93280668 53.5625 16.0625 C53.60567939 17.50326847 53.64929349 18.94402399 53.69335938 20.38476562 C53.80062393 23.9230404 53.90187371 27.46145869 54 31 C54.67546875 30.65066406 55.3509375 30.30132812 56.046875 29.94140625 C56.93890625 29.48636719 57.8309375 29.03132813 58.75 28.5625 C59.63171875 28.11003906 60.5134375 27.65757812 61.421875 27.19140625 C71.11451492 22.71223174 79.07151485 25.38964177 89 29 C89 19.43 89 9.86 89 0 C106.49 0 123.98 0 142 0 C142 12.87 142 25.74 142 39 C144.97 39.99 147.94 40.98 151 42 C153.55859375 43.60546875 153.55859375 43.60546875 155.4375 45.1875 C157.89710634 47.45499662 157.89710634 47.45499662 161 48 C162.22542253 46.37766943 162.22542253 46.37766943 163.375 44.3125 C167.33947392 37.76650817 170.4911695 34.64916464 177 30 C177.33 20.1 177.66 10.2 178 0 C224.86 0 271.72 0 320 0 C320 31.68 320 63.36 320 96 C332.21 96 344.42 96 357 96 C357 64.32 357 32.64 357 0 C373.83 0 390.66 0 408 0 C408 31.68 408 63.36 408 96 C420.54 96 433.08 96 446 96 C446 64.32 446 32.64 446 0 C463.16 0 480.32 0 498 0 C498 41.25 498 82.5 498 125 C333.66 125 169.32 125 0 125 C0 83.75 0 42.5 0 0 Z " fill="#DBF387" transform="translate(7,380)"/>
<path d="M0 0 C1.40958984 1.25683594 1.40958984 1.25683594 2.84765625 2.5390625 C5.77357029 5.08237402 8.80114673 7.17748976 12.05859375 9.2734375 C19.16194179 14.40810626 25.72185346 19.77710473 27.54986572 28.67712402 C29.40748161 43.64752277 28.07509515 59.02034096 27 74 C38.88 74 50.76 74 63 74 C62.69835937 70.83664062 62.39671875 67.67328125 62.0859375 64.4140625 C59.41558558 28.22106396 59.41558558 28.22106396 68.7890625 17.0234375 C74.73363129 10.47855796 81.70794822 4.96480121 89 0 C90.40958984 1.25683594 90.40958984 1.25683594 91.84765625 2.5390625 C94.77357029 5.08237402 97.80114673 7.17748976 101.05859375 9.2734375 C108.16194179 14.40810626 114.72185346 19.77710473 116.54986572 28.67712402 C118.40800867 43.6517703 117.11305564 59.00735312 116 74 C116.76512783 73.99885445 117.53025566 73.99770889 118.31856918 73.99652863 C148.07832014 73.95929093 177.83751015 74.07843986 207.59697618 74.19354334 C214.97983873 74.22207102 222.36270422 74.249803 229.74556991 74.27750319 C242.90297312 74.32688925 256.06037399 74.37687043 269.21777344 74.42724609 C281.9703764 74.4760706 294.72298042 74.52460223 307.47558594 74.57275391 C308.26664271 74.5757409 309.05769948 74.5787279 309.87272766 74.58180541 C313.8427159 74.59679415 317.81270416 74.61177728 321.78269243 74.62675762 C354.52179828 74.75030249 387.26090036 74.87482165 420 75 C419.97224236 74.42068254 419.94448471 73.84136507 419.91588593 73.24449253 C419.63629029 67.13726268 419.44961975 61.03188415 419.31335449 54.91981506 C419.25102885 52.64881928 419.16612664 50.37831385 419.05700684 48.10908508 C418.44298655 34.99812668 418.43385013 25.2925537 427.47509003 15.17422581 C432.7426873 9.77490165 438.71778911 5.15361071 445 1 C455.5968071 5.96822673 467.37523025 14.88451559 472 26 C475.56585015 41.33602183 473.44119546 58.47251497 472 74 C472.78375 74.28875 473.5675 74.5775 474.375 74.875 C477 76 477 76 479 78 C479.68302257 85.0578999 479.68302257 85.0578999 477.1875 88.5 C475 90 475 90 472 90 C472 103.86 472 117.72 472 132 C473.65 132.33 475.3 132.66 477 133 C479.53209382 136.79814073 479.60458578 139.54466787 479 144 C477.57576932 146.20755755 476.69051335 146.78112781 474.21734619 147.56504822 C471.66933755 148.06486232 469.36908071 148.07845079 466.77246094 148.02172852 C465.18957275 147.99109314 465.18957275 147.99109314 463.57470703 147.95983887 C461.92124268 147.91977722 461.92124268 147.91977722 460.234375 147.87890625 C458.70707764 147.84790833 458.70707764 147.84790833 457.14892578 147.81628418 C453.34915724 147.73758155 449.54958813 147.6494777 445.75 147.5625 C437.2525 147.376875 428.755 147.19125 420 147 C420 178.68 420 210.36 420 243 C407.46 243 394.92 243 382 243 C382 211.32 382 179.64 382 147 C365.17 147 348.34 147 331 147 C331 178.68 331 210.36 331 243 C318.79 243 306.58 243 294 243 C294 211.32 294 179.64 294 147 C285.82605469 147.0721875 277.65210938 147.144375 269.23046875 147.21875 C202.51723202 147.78118045 135.8032657 148.14542974 69.08762842 148.22839546 C68.08487468 148.22964361 67.08212093 148.23089176 66.04898071 148.23217773 C65.04872846 148.23341078 64.04847621 148.23464382 63.01791328 148.23591423 C55.94228771 148.24536961 48.866708 148.26275213 41.79110718 148.28344727 C33.1127806 148.30866225 24.43451734 148.32313839 15.75615275 148.32373834 C11.28900466 148.32428711 6.82199613 148.32962583 2.35488129 148.3476181 C-1.75765068 148.36397402 -5.8699456 148.36635611 -9.98249853 148.35758495 C-11.47696307 148.35683521 -12.9714404 148.36119259 -14.46587241 148.37108326 C-16.49678613 148.38375362 -18.52779628 148.37614718 -20.55873108 148.36749268 C-21.68969743 148.36895924 -22.82066378 148.3704258 -23.98590183 148.3719368 C-27.67295626 147.91695785 -30.35435973 146.64564027 -33 144 C-33.58913154 136.81259523 -33.58913154 136.81259523 -31.1875 133.5 C-29 132 -29 132 -26 132 C-26 118.14 -26 104.28 -26 90 C-27.65 89.67 -29.3 89.34 -31 89 C-33.14304046 85.7854393 -33.47210474 83.77071584 -33.39453125 79.94140625 C-33 78 -33 78 -30.625 75.5 C-28 74 -28 74 -26 74 C-26.0577359 73.45638824 -26.1154718 72.91277649 -26.17495728 72.35269165 C-30.39025984 30.73287175 -30.39025984 30.73287175 -21.88949585 19.02865601 C-15.6428276 11.56633885 -8.01905722 5.45978364 0 0 Z M27 90 C27 103.86 27 117.72 27 132 C38.88 132 50.76 132 63 132 C63 118.14 63 104.28 63 90 C51.12 90 39.24 90 27 90 Z M116 90 C116 103.86 116 117.72 116 132 C127.88 132 139.76 132 152 132 C152 118.14 152 104.28 152 90 C140.12 90 128.24 90 116 90 Z " fill="#9F642B" transform="translate(33,233)"/>
<path d="M0 0 C0.85435733 -0.00581376 1.70871466 -0.01162753 2.5889616 -0.01761746 C5.4714958 -0.03229516 8.35318882 -0.0182961 11.23571777 -0.00457001 C13.31522306 -0.00917585 15.3947251 -0.01552662 17.47422028 -0.02347898 C23.20394158 -0.04023891 28.93339777 -0.03189569 34.66312027 -0.01953411 C40.83634525 -0.01051315 47.00952346 -0.02443864 53.18273926 -0.0354538 C64.582214 -0.0522443 75.98158018 -0.05074445 87.38105226 -0.03980792 C97.91114844 -0.02975478 108.44121348 -0.02711464 118.97131348 -0.0318985 C119.6691768 -0.03220404 120.36704012 -0.03250958 121.08605081 -0.03282438 C123.91874205 -0.03406969 126.75143327 -0.03534328 129.58412448 -0.03666343 C156.16940655 -0.04890576 182.75463452 -0.03779558 209.33990824 -0.01627585 C232.9712227 0.00270729 256.60245094 0.00100881 280.23376465 -0.01811981 C306.76970493 -0.0395277 333.30559739 -0.04803762 359.8415451 -0.03567076 C362.66914367 -0.03438784 365.49674224 -0.03313649 368.32434082 -0.0318985 C369.02059297 -0.03158219 369.71684512 -0.03126588 370.43419582 -0.03093999 C380.95895126 -0.02638569 391.48367219 -0.03171938 402.00842285 -0.04181671 C413.97280025 -0.05323781 425.93707578 -0.05004233 437.9014492 -0.02869374 C444.01023517 -0.01815415 450.1188458 -0.01411096 456.22763062 -0.02729034 C461.81361349 -0.03915988 467.39925757 -0.03274183 472.98520947 -0.01138014 C475.01206214 -0.00689092 477.03894311 -0.00923186 479.06577778 -0.01888329 C481.80948366 -0.03095183 484.5520112 -0.01867005 487.2956543 0 C488.49106228 -0.014047 488.49106228 -0.014047 489.71061993 -0.02837777 C493.2820571 0.02058761 495.26039141 0.20718709 498.13883209 2.40762758 C500.68058963 5.93769565 500.12212848 8.23465258 499.64782715 12.50336456 C498.22359647 14.71092211 497.3383405 15.28449238 494.86517334 16.06841278 C492.3171647 16.56822688 490.01690786 16.58181536 487.42028809 16.52509308 C486.3650293 16.50466949 485.30977051 16.48424591 484.22253418 16.46320343 C483.12022461 16.43649567 482.01791504 16.4097879 480.88220215 16.38227081 C479.35490479 16.35127289 479.35490479 16.35127289 477.79675293 16.31964874 C473.99698439 16.24094611 470.19741527 16.15284226 466.39782715 16.06586456 C457.90032715 15.88023956 449.40282715 15.69461456 440.64782715 15.50336456 C440.64782715 47.18336456 440.64782715 78.86336456 440.64782715 111.50336456 C428.10782715 111.50336456 415.56782715 111.50336456 402.64782715 111.50336456 C402.64782715 79.82336456 402.64782715 48.14336456 402.64782715 15.50336456 C385.81782715 15.50336456 368.98782715 15.50336456 351.64782715 15.50336456 C351.64782715 47.18336456 351.64782715 78.86336456 351.64782715 111.50336456 C339.43782715 111.50336456 327.22782715 111.50336456 314.64782715 111.50336456 C314.64782715 79.82336456 314.64782715 48.14336456 314.64782715 15.50336456 C306.47388184 15.57555206 298.29993652 15.64773956 289.8782959 15.72211456 C223.16505916 16.28454502 156.45109285 16.64879431 89.73545557 16.73176003 C88.73270183 16.73300817 87.72994808 16.73425632 86.69680786 16.7355423 C85.69655561 16.73677534 84.69630336 16.73800838 83.66574043 16.73927879 C76.59011486 16.74873417 69.51453515 16.76611669 62.43893433 16.78681183 C53.76060775 16.81202681 45.08234449 16.82650295 36.4039799 16.8271029 C31.9368318 16.82765167 27.46982328 16.83299039 23.00270844 16.85098267 C18.89017647 16.86733858 14.77788155 16.86972067 10.66532862 16.86094952 C9.17086408 16.86019977 7.67638675 16.86455715 6.18195474 16.87444782 C4.15104102 16.88711818 2.12003087 16.87951174 0.08909607 16.87085724 C-1.04187028 16.8723238 -2.17283663 16.87379036 -3.33807468 16.87530136 C-7.02512911 16.42032241 -9.70653258 15.14900484 -12.35217285 12.50336456 C-12.94058957 5.32468057 -12.94058957 5.32468057 -10.84757233 2.40323305 C-7.36297524 -0.24975949 -4.20568544 -0.04942016 0 0 Z " fill="#9E6229" transform="translate(12.3521728515625,364.4966354370117)"/>
<path d="M0 0 C10.06544982 7.98188639 16.69310129 18.49709825 19.56640625 31.03515625 C19.86004592 34.3110187 19.90057006 37.56001831 19.87890625 40.84765625 C19.8732666 41.73767334 19.86762695 42.62769043 19.86181641 43.54467773 C19.74563218 49.81690056 19.23417452 55.28373188 16.56640625 61.03515625 C16.17582031 61.92074219 15.78523437 62.80632812 15.3828125 63.71875 C8.83042831 77.1019483 -1.78725145 84.88474011 -15.43359375 90.03515625 C-28.89377295 94.12245457 -42.95787253 92.0906388 -55.23046875 85.54296875 C-61.95013914 81.6393452 -61.95013914 81.6393452 -63.68865967 79.46665955 C-66.2385764 77.37476722 -68.18072533 77.66338213 -71.44628906 77.66625977 C-72.684776 77.65937637 -73.92326294 77.65249298 -75.19927979 77.645401 C-76.19170055 77.65016795 -76.19170055 77.65016795 -77.20417023 77.6550312 C-79.28175411 77.66415044 -81.358437 77.65390779 -83.43597412 77.63841248 C-89.34190457 77.59834666 -95.24776485 77.59710257 -101.15380859 77.59936523 C-104.76901165 77.59941654 -108.38373171 77.58014538 -111.99880219 77.55003166 C-114.03690029 77.53925974 -116.07405449 77.55130699 -118.11212158 77.56385803 C-126.15595451 77.49933514 -131.11951937 76.99133657 -137.17578125 71.4375 C-141.98346837 65.22066321 -142.1393847 59.6994495 -141.43359375 52.03515625 C-139.72569185 46.61866738 -135.90042802 43.26648317 -131.43359375 40.03515625 C-128.68280491 39.11822664 -127.07410462 38.92629542 -124.24609375 38.97265625 C-122.98796875 38.99328125 -121.72984375 39.01390625 -120.43359375 39.03515625 C-120.51609375 37.88015625 -120.59859375 36.72515625 -120.68359375 35.53515625 C-120.66391596 29.97618074 -118.7363982 25.65650426 -115.078125 21.4921875 C-111.00245401 17.76617193 -106.76200481 16.13729161 -101.26953125 15.96875 C-95.37985271 16.30270084 -90.88392836 18.14866494 -86.43359375 22.03515625 C-82.75132004 26.3134049 -81.93749581 30.68366436 -81.609375 36.21484375 C-81.62646199 38.05424336 -81.62646199 38.05424336 -80.43359375 39.03515625 C-80.51609375 37.96265625 -80.59859375 36.89015625 -80.68359375 35.78515625 C-80.62360797 24.44784438 -74.63850038 13.7542391 -67.1796875 5.55859375 C-48.76372702 -12.1183635 -21.0789166 -14.4514843 0 0 Z " fill="#FED775" transform="translate(165.43359375,50.96484375)"/>
<path d="M0 0 C1.2389502 0.00749268 1.2389502 0.00749268 2.50292969 0.01513672 C11.79251982 0.27811809 20.28276841 3.12462155 27.09765625 9.65625 C38.41741586 22.78383363 39.13456715 36.60254857 39.02807617 53.12011719 C39.02722847 54.97408026 39.02770783 56.82804434 39.02940369 58.68200684 C39.03025948 63.68122656 39.01270157 68.68022746 38.99168181 73.67939663 C38.97284516 78.91640024 38.97115909 84.15340964 38.96760559 89.39044189 C38.95830558 99.29239475 38.9337196 109.19424747 38.90355712 119.09615636 C38.8699493 130.37552876 38.85351109 141.6549061 38.83847082 152.93431616 C38.80716813 176.12293281 38.7544476 199.31146078 38.6875 222.5 C37.5710778 221.54947729 36.45556745 220.5978835 35.34043884 219.64584351 C34.71914062 219.11604071 34.09784239 218.58623791 33.45771694 218.04038048 C31.23453648 216.10584709 29.14239861 214.06770808 27.06640625 211.9765625 C26.27685547 211.18378906 25.48730469 210.39101562 24.67382812 209.57421875 C23.87396484 208.76597656 23.07410156 207.95773438 22.25 207.125 C21.42306641 206.29355469 20.59613281 205.46210938 19.74414062 204.60546875 C17.72294469 202.5725896 15.70413665 200.53740037 13.6875 198.5 C10.64570046 199.85440214 8.60510545 201.36084538 6.3046875 203.7578125 C5.69496094 204.38300781 5.08523438 205.00820312 4.45703125 205.65234375 C3.83183594 206.30332031 3.20664062 206.95429688 2.5625 207.625 C1.31456198 208.92377053 0.0621757 210.21828638 -1.1953125 211.5078125 C-1.74590332 212.08160645 -2.29649414 212.65540039 -2.86376953 213.24658203 C-4.3125 214.5 -4.3125 214.5 -6.3125 214.5 C-6.31608253 213.10685798 -6.31608253 213.10685798 -6.31973743 211.68557167 C-6.37858272 189.06649405 -6.45449666 166.44752252 -6.54821491 143.82856178 C-6.59314329 132.8901122 -6.63256482 121.95169496 -6.65893555 111.01318359 C-6.68193954 101.47702198 -6.71536448 91.94096298 -6.76120156 82.40488279 C-6.78510131 77.35755931 -6.80385139 72.31033726 -6.81011391 67.26295853 C-6.81617942 62.50723367 -6.83623227 57.7517682 -6.86677551 52.99613953 C-6.87553225 51.25557128 -6.87928324 49.5149691 -6.87750816 47.77437973 C-6.86802938 34.18481864 -7.89900004 20.98981288 -18.03515625 10.76171875 C-19.40859652 9.60906793 -20.85345476 8.54217517 -22.3125 7.5 C-16.93774008 0.7231288 -8.12317349 -0.06515915 0 0 Z " fill="#85AA18" transform="translate(466.3125,36.5)"/>
<path d="M0 0 C29.7 0 59.4 0 90 0 C90 31.68 90 63.36 90 96 C75.48 96 60.96 96 46 96 C43.69 91.38 41.38 86.76 39 82 C33.43930522 76.12602664 29.48062107 73.60366517 22 71 C21.90203125 69.85402344 21.8040625 68.70804687 21.703125 67.52734375 C21.55293781 65.99731172 21.40184795 64.4673681 21.25 62.9375 C21.188125 62.18533203 21.12625 61.43316406 21.0625 60.65820312 C20.49020084 55.1498237 18.93475609 51.68248686 16 47 C16 46.34 16 45.68 16 45 C14.68 45.66 13.36 46.32 12 47 C11.55269531 46.40832031 11.10539063 45.81664062 10.64453125 45.20703125 C10.03996094 44.41683594 9.43539062 43.62664062 8.8125 42.8125 C7.92498047 41.64654297 7.92498047 41.64654297 7.01953125 40.45703125 C4.85190631 37.81982412 2.41386198 35.41386198 0 33 C0 22.11 0 11.22 0 0 Z " fill="#C4E666" transform="translate(237,380)"/>
<path d="M0 0 C17.16 0 34.32 0 52 0 C52 31.68 52 63.36 52 96 C34.84 96 17.68 96 0 96 C0 64.32 0 32.64 0 0 Z " fill="#F5CB8F" transform="translate(453,380)"/>
<path d="M0 0 C16.83 0 33.66 0 51 0 C51 31.68 51 63.36 51 96 C34.17 96 17.34 96 0 96 C0 64.32 0 32.64 0 0 Z " fill="#F7D7AC" transform="translate(364,380)"/>
<path d="M0 0 C4.26575941 3.72530121 5.79875433 7.67124438 6.32421875 13.2421875 C6.40293213 14.04366211 6.48164551 14.84513672 6.56274414 15.67089844 C6.64383423 16.5801709 6.64383423 16.5801709 6.7265625 17.5078125 C7.79970703 17.51397583 7.79970703 17.51397583 8.89453125 17.52026367 C12.17268375 17.55339506 15.44902578 17.6240617 18.7265625 17.6953125 C19.85191406 17.70111328 20.97726563 17.70691406 22.13671875 17.71289062 C30.20928989 17.92532671 35.45151394 19.33709908 41.27709961 25.02050781 C45.46554697 29.7007162 46.06001749 33.23101784 45.93359375 39.42578125 C45.40303222 44.76142832 43.20852565 48.3466252 39.2890625 51.8203125 C34.47293336 55.75294592 31.05959085 56.75997749 24.77416992 56.79833984 C24.08257278 56.80505707 23.39097565 56.81177429 22.67842102 56.81869507 C20.39621761 56.83766364 18.11430855 56.84159887 15.83203125 56.84375 C14.24025859 56.85017958 12.64848711 56.85690806 11.05671692 56.86392212 C7.72031923 56.87589262 4.38402506 56.87960327 1.04760742 56.87841797 C-3.21615834 56.87821499 -7.47925603 56.90549619 -11.74286366 56.93996239 C-15.03125523 56.96226326 -18.31948696 56.96625452 -21.6079464 56.96519852 C-23.17914821 56.96755048 -24.7503547 56.97635123 -26.3214817 56.99186325 C-28.52574235 57.01158565 -30.72857488 57.00566203 -32.93286133 56.99365234 C-34.18432449 56.99650238 -35.43578766 56.99935242 -36.72517395 57.00228882 C-42.0928193 56.25426842 -46.76403252 53.82169825 -50.1484375 49.4453125 C-54.16066076 43.89900387 -53.883612 38.13379198 -53.2734375 31.5078125 C-51.5655356 26.09132363 -47.74027177 22.73913942 -43.2734375 19.5078125 C-40.52264866 18.59088289 -38.91394837 18.39895167 -36.0859375 18.4453125 C-34.19875 18.47625 -34.19875 18.47625 -32.2734375 18.5078125 C-32.3559375 17.3528125 -32.4384375 16.1978125 -32.5234375 15.0078125 C-32.50375971 9.44883699 -30.57624195 5.12916051 -26.91796875 0.96484375 C-18.94277735 -6.32614892 -8.49995905 -5.92626627 0 0 Z " fill="#C7ECFE" transform="translate(77.2734375,71.4921875)"/>
<path d="M0 0 C12.54 0 25.08 0 38 0 C38 31.68 38 63.36 38 96 C25.46 96 12.92 96 0 96 C0 64.32 0 32.64 0 0 Z " fill="#9DC043" transform="translate(415,380)"/>
<path d="M0 0 C12.21 0 24.42 0 37 0 C37 31.68 37 63.36 37 96 C24.79 96 12.58 96 0 96 C0 64.32 0 32.64 0 0 Z " fill="#9CBF42" transform="translate(327,380)"/>
<path d="M0 0 C0.93972656 0.83789062 1.87945312 1.67578125 2.84765625 2.5390625 C5.77357029 5.08237402 8.80114673 7.17748976 12.05859375 9.2734375 C19.1608337 14.40618691 25.70306142 19.78319327 27.55700684 28.66998291 C29.42011092 43.28145393 29.05736176 59.40407713 27 74 C26 75 26 75 23.90562439 75.12025452 C22.98407059 75.11803391 22.06251678 75.11581329 21.11303711 75.11352539 C20.07203354 75.11344986 19.03102997 75.11337433 17.95848083 75.11329651 C16.8262056 75.10813522 15.69393036 75.10297394 14.52734375 75.09765625 C13.37456436 75.0962413 12.22178497 75.09482635 11.03407288 75.09336853 C7.33518936 75.08775005 3.63636536 75.07519442 -0.0625 75.0625 C-2.56315017 75.05748738 -5.06380129 75.05292406 -7.56445312 75.04882812 C-13.70965588 75.03777462 -19.85482369 75.02101852 -26 75 C-30.56915387 30.98772294 -30.56915387 30.98772294 -21.88949585 18.96905518 C-15.66128853 11.50354041 -8.03534658 5.41744776 0 0 Z " fill="#F7D7AC" transform="translate(122,233)"/>
<path d="M0 0 C0.93972656 0.83789062 1.87945312 1.67578125 2.84765625 2.5390625 C5.77357029 5.08237402 8.80114673 7.17748976 12.05859375 9.2734375 C19.1608337 14.40618691 25.70306142 19.78319327 27.55700684 28.66998291 C29.42011092 43.28145393 29.05736176 59.40407713 27 74 C26 75 26 75 23.90562439 75.12025452 C22.98407059 75.11803391 22.06251678 75.11581329 21.11303711 75.11352539 C20.07203354 75.11344986 19.03102997 75.11337433 17.95848083 75.11329651 C16.8262056 75.10813522 15.69393036 75.10297394 14.52734375 75.09765625 C13.37456436 75.0962413 12.22178497 75.09482635 11.03407288 75.09336853 C7.33518936 75.08775005 3.63636536 75.07519442 -0.0625 75.0625 C-2.56315017 75.05748738 -5.06380129 75.05292406 -7.56445312 75.04882812 C-13.70965588 75.03777462 -19.85482369 75.02101852 -26 75 C-30.56915387 30.98772294 -30.56915387 30.98772294 -21.88949585 18.96905518 C-15.66128853 11.50354041 -8.03534658 5.41744776 0 0 Z " fill="#F7D7AC" transform="translate(33,233)"/>
<path d="M0 0 C10.63964136 5.00238282 22.39744473 13.80471809 27 25 C30.59827568 40.72216795 27.97144181 58.4146944 27 74 C9.84 74 -7.32 74 -25 74 C-28.21678731 26.77756233 -28.21678731 26.77756233 -19.43359375 16.1796875 C-13.76029968 9.89814746 -7.04333034 4.65684022 0 0 Z " fill="#F4CB8E" transform="translate(478,234)"/>
<path d="M0 0 C0.95003906 0.84820312 1.90007812 1.69640625 2.87890625 2.5703125 C5.72547523 5.04465439 8.64537947 7.05665414 11.83984375 9.0546875 C18.68721501 13.90174759 24.83885225 19.10003699 26.52124023 27.64849854 C28.30471296 42.69944393 26.78331298 57.95214547 26 73 C8.84 73 -8.32 73 -26 73 C-29.08671148 26.69932778 -29.08671148 26.69932778 -20.7265625 16.50390625 C-14.96748497 10.08290544 -7.73496428 3.86748214 0 0 Z " fill="#F7D7AC" transform="translate(211,234)"/>
<path d="M0 0 C0.95003906 0.84820312 1.90007812 1.69640625 2.87890625 2.5703125 C5.72547523 5.04465439 8.64537947 7.05665414 11.83984375 9.0546875 C18.68721501 13.90174759 24.83885225 19.10003699 26.52124023 27.64849854 C28.30471296 42.69944393 26.78331298 57.95214547 26 73 C9.17 73 -7.66 73 -25 73 C-28.21678731 26.80693427 -28.21678731 26.80693427 -19.43359375 16.24609375 C-13.7459843 9.96114805 -7.0314816 4.69762813 0 0 Z " fill="#F7D7AC" transform="translate(389,234)"/>
<path d="M0 0 C0.95003906 0.84820312 1.90007812 1.69640625 2.87890625 2.5703125 C5.72547523 5.04465439 8.64537947 7.05665414 11.83984375 9.0546875 C18.68721501 13.90174759 24.83885225 19.10003699 26.52124023 27.64849854 C28.30471296 42.69944393 26.78331298 57.95214547 26 73 C9.17 73 -7.66 73 -25 73 C-28.21678731 26.80693427 -28.21678731 26.80693427 -19.43359375 16.24609375 C-13.7459843 9.96114805 -7.0314816 4.69762813 0 0 Z " fill="#F7D7AC" transform="translate(300,234)"/>
<path d="M0 0 C8.559375 -0.020625 17.11875 -0.04125 25.9375 -0.0625 C28.64316162 -0.071604 31.34882324 -0.08070801 34.13647461 -0.09008789 C36.26676382 -0.09300685 38.39705358 -0.09555545 40.52734375 -0.09765625 C41.64500122 -0.10277222 42.76265869 -0.10788818 43.91418457 -0.11315918 C45.49761658 -0.11334045 45.49761658 -0.11334045 47.11303711 -0.11352539 C48.03459091 -0.115746 48.95614471 -0.11796661 49.90562439 -0.12025452 C52 0 52 0 53 1 C53.34164338 5.37526334 53.40006826 9.75641102 53.45996094 14.14306641 C53.48633849 15.61345399 53.52700585 17.08366518 53.58300781 18.55322266 C53.92432115 27.62269935 53.42451025 34.22352437 47.65405273 41.72045898 C45.25773321 45.02295867 44.67598976 48.01917143 44 52 C43.10539062 52.08636719 42.21078125 52.17273438 41.2890625 52.26171875 C27.97916383 53.80839141 19.15070442 58.09068796 10 68 C5.06750092 74.42782511 2.7040252 81.13756795 1 89 C0.67 89 0.34 89 0 89 C0 59.63 0 30.26 0 0 Z " fill="#F7D7AC" transform="translate(7,380)"/>
<path d="M0 0 C16.83 0 33.66 0 51 0 C51 30.03 51 60.06 51 91 C48 87 48 87 46.3125 84.1875 C42.35970005 78.73904601 37.97115635 74.58408801 31.5625 72.375 C29.55078125 71.47265625 29.55078125 71.47265625 28 70 C27.3257771 66.73748518 27.24695973 63.65279644 27.18359375 60.32421875 C26.79690765 53.32273213 23.38711972 47.58408075 18.69140625 42.5 C13.22217887 37.64969211 7.13354805 36.5852329 0 35 C0 23.45 0 11.9 0 0 Z " fill="#F7D7AC" transform="translate(275,380)"/>
<path d="M0 0 C17.49 0 34.98 0 53 0 C53 13.86 53 27.72 53 42 C35.51 42 18.02 42 0 42 C0 28.14 0 14.28 0 0 Z " fill="#F8D8AC" transform="translate(96,323)"/>
<path d="M0 0 C17.49 0 34.98 0 53 0 C53 13.86 53 27.72 53 42 C35.51 42 18.02 42 0 42 C0 28.14 0 14.28 0 0 Z " fill="#F7D8AC" transform="translate(7,323)"/>
<path d="M0 0 C17.16 0 34.32 0 52 0 C52 13.86 52 27.72 52 42 C34.84 42 17.68 42 0 42 C0 28.14 0 14.28 0 0 Z " fill="#F5CC90" transform="translate(453,323)"/>
<path d="M0 0 C17.16 0 34.32 0 52 0 C52 13.86 52 27.72 52 42 C34.84 42 17.68 42 0 42 C0 28.14 0 14.28 0 0 Z " fill="#F8D8AD" transform="translate(185,323)"/>
<path d="M0 0 C17.49 0 34.98 0 53 0 C53 12.87 53 25.74 53 39 C48.05 39 43.1 39 38 39 C28.13398434 40.90955142 19.98121508 44.63712396 13 52 C12.75765625 51.27554688 12.5153125 50.55109375 12.265625 49.8046875 C9.16387039 40.30104364 9.16387039 40.30104364 2.40161133 33.28808594 C0 31 0 31 -0.56762695 27.70019531 C-0.54144287 26.42241211 -0.51525879 25.14462891 -0.48828125 23.828125 C-0.47579346 22.5793457 -0.46330566 21.33056641 -0.45043945 20.04394531 C-0.40491943 18.46194336 -0.35939941 16.87994141 -0.3125 15.25 C-0.209375 10.2175 -0.10625 5.185 0 0 Z " fill="#F7D7AC" transform="translate(96,380)"/>
<path d="M0 0 C16.83 0 33.66 0 51 0 C51 13.86 51 27.72 51 42 C34.17 42 17.34 42 0 42 C0 28.14 0 14.28 0 0 Z " fill="#F8D8AD" transform="translate(364,323)"/>
<path d="M0 0 C16.83 0 33.66 0 51 0 C51 13.86 51 27.72 51 42 C34.17 42 17.34 42 0 42 C0 28.14 0 14.28 0 0 Z " fill="#F8D8AD" transform="translate(275,323)"/>
<path d="M0 0 C12.54 0 25.08 0 38 0 C38 13.86 38 27.72 38 42 C25.46 42 12.92 42 0 42 C0 28.14 0 14.28 0 0 Z " fill="#9DC043" transform="translate(415,323)"/>
<path d="M0 0 C12.54 0 25.08 0 38 0 C38 13.86 38 27.72 38 42 C25.46 42 12.92 42 0 42 C0 28.14 0 14.28 0 0 Z " fill="#9DC043" transform="translate(326,323)"/>
<path d="M0 0 C12.54 0 25.08 0 38 0 C38 13.86 38 27.72 38 42 C25.46 42 12.92 42 0 42 C0 28.14 0 14.28 0 0 Z " fill="#9DC043" transform="translate(237,323)"/>
<path d="M0 0 C12.54 0 25.08 0 38 0 C38 11.22 38 22.44 38 34 C34.04 34.99 30.08 35.98 26 37 C20.7867844 39.83003133 16.45126073 43.10514686 12 47 C11.55269531 46.40832031 11.10539063 45.81664062 10.64453125 45.20703125 C10.03996094 44.41683594 9.43539062 43.62664062 8.8125 42.8125 C7.92498047 41.64654297 7.92498047 41.64654297 7.01953125 40.45703125 C5.04836513 37.90439121 5.04836513 37.90439121 2.40429688 35.828125 C-0.5990766 32.29531851 -0.65303811 29.7175337 -0.48828125 25.29296875 C-0.48324585 24.64928345 -0.47821045 24.00559814 -0.47302246 23.34240723 C-0.44702516 20.95697966 -0.37721735 18.57219122 -0.3125 16.1875 C-0.209375 10.845625 -0.10625 5.50375 0 0 Z " fill="#9DC043" transform="translate(237,380)"/>
<path d="M0 0 C17.16 0 34.32 0 52 0 C52 10.89 52 21.78 52 33 C48.04 31.02 44.08 29.04 40 27 C34.97298794 25.19153372 30.25453847 24.58217224 24.9375 24.5625 C24.20523193 24.55863281 23.47296387 24.55476563 22.71850586 24.55078125 C16.11264698 24.68794194 10.72552512 26.39932372 4.66015625 28.90625 C2 30 2 30 0 30 C0 20.1 0 10.2 0 0 Z " fill="#F7D7AC" transform="translate(185,380)"/>
<path d="M0 0 C8.8716307 7.03207198 16.36318313 14.61353022 21 25 C20.360625 24.731875 19.72125 24.46375 19.0625 24.1875 C18.051875 23.795625 17.04125 23.40375 16 23 C15.3915625 22.73574219 14.783125 22.47148438 14.15625 22.19921875 C4.06248219 18.22573926 -7.04452216 18.93577871 -17 23 C-17.68835938 23.36351562 -18.37671875 23.72703125 -19.0859375 24.1015625 C-21 25 -21 25 -24 25 C-25.47265625 22.9453125 -25.47265625 22.9453125 -27.0625 20.125 C-34.11884886 8.61590269 -44.28235824 -0.25086268 -57 -5 C-56.67 -5.99 -56.34 -6.98 -56 -8 C-37.99506019 -14.22444555 -15.54428331 -10.55793942 0 0 Z " fill="#85AA19" transform="translate(423,18)"/>
<path d="M0 0 C14.52 0 29.04 0 44 0 C44 9.57 44 19.14 44 29 C29.48 29 14.96 29 0 29 C0 19.43 0 9.86 0 0 Z " fill="#C5E766" transform="translate(461,476)"/>
<path d="M0 0 C2.31 0 4.62 0 7 0 C7 31.35 7 62.7 7 95 C4.69 95 2.38 95 0 95 C0 63.65 0 32.3 0 0 Z " fill="#F8D8AD" transform="translate(453,381)"/>
<path d="M0 0 C2.14591583 1.61015659 2.91873621 2.5082618 3.36076355 5.18302917 C3.35410172 6.02908218 3.34743988 6.87513519 3.34057617 7.74682617 C3.34034958 8.70759567 3.34012299 9.66836517 3.33988953 10.6582489 C3.32440567 11.69270645 3.30892181 12.727164 3.29296875 13.79296875 C3.28872391 14.85413406 3.28447906 15.91529938 3.28010559 17.00862122 C3.26329706 20.40183765 3.22564019 23.79446272 3.1875 27.1875 C3.172456 29.48631956 3.15876711 31.78514841 3.14648438 34.08398438 C3.11338645 39.72285842 3.0631653 45.36138697 3 51 C0.36 51 -2.28 51 -5 51 C-5.07596188 44.219067 -5.1285625 37.4382434 -5.16479492 30.65698242 C-5.17989676 28.34932352 -5.20037969 26.04169339 -5.22631836 23.73413086 C-5.26263975 20.42033801 -5.27971236 17.10692408 -5.29296875 13.79296875 C-5.30845261 12.7585112 -5.32393646 11.72405365 -5.33988953 10.6582489 C-5.34011612 9.6974794 -5.34034271 8.7367099 -5.34057617 7.74682617 C-5.34723801 6.90077316 -5.35389984 6.05472015 -5.36076355 5.18302917 C-4.82464739 1.9389176 -3.40521568 0 0 0 Z " fill="#F7D7AA" transform="translate(458,256)"/>
<path d="M0 0 C2.31 0 4.62 0 7 0 C7 13.86 7 27.72 7 42 C4.69 42 2.38 42 0 42 C0 28.14 0 14.28 0 0 Z " fill="#F8D8AD" transform="translate(453,323)"/>
</svg>
